<svg width="24" height="24" viewBox="0 0 24 24" fill="none" xmlns="http://www.w3.org/2000/svg">
<g clip-path="url(#clip0_81_246)">
<path fill-rule="evenodd" clip-rule="evenodd" d="M12 2.25C6.61522 2.25 2.25 6.61522 2.25 12C2.25 17.3848 6.61522 21.75 12 21.75C17.3848 21.75 21.75 17.3848 21.75 12C21.7443 6.61758 17.3824 2.25568 12 2.25ZM12 20.25C7.44365 20.25 3.75 16.5563 3.75 12C3.75 7.44365 7.44365 3.75 12 3.75C16.5563 3.75 20.25 7.44365 20.25 12C20.2448 16.5542 16.5542 20.2448 12 20.25ZM16.1644 6.82875L10.1644 9.82875C10.0193 9.90162 9.90162 10.0193 9.82875 10.1644L6.82875 16.1644C6.71237 16.397 6.72478 16.6732 6.86155 16.8944C6.99832 17.1156 7.23993 17.2502 7.5 17.25C7.61643 17.2498 7.73127 17.2229 7.83563 17.1712L13.8356 14.1713C13.9807 14.0984 14.0984 13.9807 14.1713 13.8356L17.1712 7.83563C17.3164 7.54669 17.2601 7.19724 17.0314 6.96859C16.8028 6.73995 16.4533 6.68358 16.1644 6.82875ZM12.9375 12.9375L9.17719 14.8228L11.0625 11.0625L14.8266 9.18094L12.9375 12.9375Z" fill="#121217"/>
</g>
<defs>
<clipPath id="clip0_81_246">
<rect width="24" height="24" fill="white"/>
</clipPath>
</defs>
</svg>
