<?xml version="1.0" standalone="no"?>
<!DOCTYPE svg PUBLIC "-//W3C//DTD SVG 20010904//EN"
 "http://www.w3.org/TR/2001/REC-SVG-20010904/DTD/svg10.dtd">
<svg version="1.0" xmlns="http://www.w3.org/2000/svg"
 width="100%" height="100%" viewBox="0 0 1024.000000 1024.000000"
 preserveAspectRatio="xMidYMid meet">
		<g transform="translate(0.000000,1024.000000) scale(0.100000,-0.100000)" stroke="none">
		<path fill="#0A6AA6" d="M4732 8329 c-653 -76 -1207 -572 -1368 -1224 -15 -60 -29 -112 -30
		-114 -2 -2 -46 -10 -97 -17 -441 -61 -842 -393 -1018 -843 -157 -400 -123
		-869 88 -1216 93 -154 241 -314 385 -415 96 -69 291 -162 404 -195 165 -47
		271 -55 737 -55 235 0 427 3 427 8 0 4 -7 72 -15 152 -8 80 -15 148 -15 153 0
		4 -195 7 -434 7 -345 0 -450 3 -513 15 -442 84 -772 424 -843 867 -19 116 -8
		310 23 430 74 282 261 524 510 658 152 82 277 112 475 114 179 1 176 -1 185
		143 7 111 25 198 68 329 151 460 545 800 1018 879 150 25 398 16 531 -19 249
		-66 418 -162 591 -335 89 -90 215 -253 230 -300 3 -8 52 7 144 44 77 32 142
		59 145 62 16 15 -154 272 -250 376 -338 365 -866 555 -1378 496z"/>
		<path fill="#0A6AA6" d="M7205 7554 c-801 -319 -1475 -586 -2799 -1110 -615 -244 -1127 -451
		-1137 -460 -24 -21 -24 -56 -1 -82 10 -13 163 -78 387 -165 634 -247 734 -289
		740 -306 4 -14 23 -260 70 -936 9 -126 21 -235 27 -242 6 -7 25 -13 42 -13 27
		1 77 45 400 360 l370 359 125 -87 c69 -47 256 -177 414 -289 158 -112 301
		-210 319 -219 36 -19 87 -12 111 14 51 56 1597 3302 1597 3352 0 34 -23 60
		-53 59 -12 0 -287 -106 -612 -235z m-65 -380 c-52 -53 -264 -256 -470 -452
		-206 -196 -443 -422 -525 -502 -148 -143 -580 -547 -929 -870 -164 -152 -193
		-184 -358 -400 -100 -129 -187 -242 -195 -250 -12 -13 -14 37 -11 380 3 356 5
		398 21 428 18 32 229 186 818 597 665 462 1713 1165 1739 1165 2 0 -38 -43
		-90 -96z"/>
		<path fill="#0A6AA6" d="M7569 6549 l-64 -141 95 -97 c143 -145 231 -309 276 -516 27 -124 23
		-314 -9 -436 -33 -125 -75 -222 -140 -322 -100 -153 -216 -260 -371 -343 -173
		-92 -275 -116 -530 -123 l-198 -6 -79 -150 c-43 -82 -79 -153 -79 -157 0 -5
		102 -8 228 -8 240 0 380 14 512 49 503 135 889 563 975 1080 26 151 17 408
		-18 542 -63 240 -180 449 -348 619 -65 67 -165 150 -178 150 -5 0 -37 -63 -72
		-141z"/>
	</g>
</svg>
