<?xml version="1.0" standalone="no"?>
<!DOCTYPE svg PUBLIC "-//W3C//DTD SVG 20010904//EN"
 "http://www.w3.org/TR/2001/REC-SVG-20010904/DTD/svg10.dtd">
<svg version="1.0" xmlns="http://www.w3.org/2000/svg"
 width="100%"
  height="100%"
  viewBox="0 0 100 100"
 preserveAspectRatio="xMidYMid meet">
<path fill="#0A6AA6" d="M4732 8329 c-653 -76 -1207 -572 -1368 -1224 -15 -60 -29 -112 -30
-114 -2 -2 -46 -10 -97 -17 -441 -61 -842 -393 -1018 -843 -157 -400 -123
-869 88 -1216 93 -154 241 -314 385 -415 96 -69 291 -162 404 -195 165 -47
271 -55 737 -55 235 0 427 3 427 8 0 4 -7 72 -15 152 -8 80 -15 148 -15 153 0
4 -195 7 -434 7 -345 0 -450 3 -513 15 -442 84 -772 424 -843 867 -19 116 -8
310 23 430 74 282 261 524 510 658 152 82 277 112 475 114 179 1 176 -1 185
143 7 111 25 198 68 329 151 460 545 800 1018 879 150 25 398 16 531 -19 249
-66 418 -162 591 -335 89 -90 215 -253 230 -300 3 -8 52 7 144 44 77 32 142
59 145 62 16 15 -154 272 -250 376 -338 365 -866 555 -1378 496z"/>
<path fill="#0A6AA6" d="M7205 7554 c-801 -319 -1475 -586 -2799 -1110 -615 -244 -1127 -451
-1137 -460 -24 -21 -24 -56 -1 -82 10 -13 163 -78 387 -165 634 -247 734 -289
740 -306 4 -14 23 -260 70 -936 9 -126 21 -235 27 -242 6 -7 25 -13 42 -13 27
1 77 45 400 360 l370 359 125 -87 c69 -47 256 -177 414 -289 158 -112 301
-210 319 -219 36 -19 87 -12 111 14 51 56 1597 3302 1597 3352 0 34 -23 60
-53 59 -12 0 -287 -106 -612 -235z m-65 -380 c-52 -53 -264 -256 -470 -452
-206 -196 -443 -422 -525 -502 -148 -143 -580 -547 -929 -870 -164 -152 -193
-184 -358 -400 -100 -129 -187 -242 -195 -250 -12 -13 -14 37 -11 380 3 356 5
398 21 428 18 32 229 186 818 597 665 462 1713 1165 1739 1165 2 0 -38 -43
-90 -96z"/>
<path fill="#0A6AA6" d="M7569 6549 l-64 -141 95 -97 c143 -145 231 -309 276 -516 27 -124 23
-314 -9 -436 -33 -125 -75 -222 -140 -322 -100 -153 -216 -260 -371 -343 -173
-92 -275 -116 -530 -123 l-198 -6 -79 -150 c-43 -82 -79 -153 -79 -157 0 -5
102 -8 228 -8 240 0 380 14 512 49 503 135 889 563 975 1080 26 151 17 408
-18 542 -63 240 -180 449 -348 619 -65 67 -165 150 -178 150 -5 0 -37 -63 -72
-141z"/>
<path fill="#023059" d="M6109 3697 c-120 -80 -62 -247 86 -247 111 0 176 98 130 194 -34 71
-148 99 -216 53z"/>
<path fill="#023059" d="M6540 3055 l0 -655 120 0 120 0 0 655 0 655 -120 0 -120 0 0 -655z"/>
<path fill="#023059" d="M1690 3030 l0 -632 308 4 c249 4 318 8 367 21 287 81 445 300 445
614 -1 304 -161 520 -445 599 -48 14 -120 18 -367 22 l-308 4 0 -632z m562
399 c123 -26 226 -109 270 -218 19 -48 23 -74 23 -182 0 -125 0 -125 -38 -201
-42 -85 -91 -134 -172 -172 -74 -35 -142 -46 -280 -46 l-125 0 0 415 0 415
135 0 c73 0 158 -5 187 -11z"/>
<path fill="#023059" d="M4940 3030 l0 -630 125 0 125 0 0 210 0 210 153 0 c84 0 180 5 212
11 142 26 260 111 318 228 30 62 32 71 32 181 0 106 -2 120 -29 177 -35 77
-114 154 -191 189 -97 42 -202 54 -486 54 l-259 0 0 -630z m585 396 c83 -36
125 -98 125 -185 0 -86 -34 -141 -115 -184 -35 -19 -60 -22 -192 -25 l-153 -4
0 212 0 212 148 -4 c111 -3 157 -9 187 -22z"/>
<path fill="#023059" d="M8130 3430 l0 -120 -71 0 -70 0 6 -82 c4 -46 8 -89 10 -95 3 -9 25
-13 64 -13 l60 0 4 -267 c2 -190 7 -279 17 -306 19 -53 72 -112 126 -138 58
-28 202 -36 284 -17 50 12 55 16 58 43 2 17 1 57 -3 91 l-6 61 -69 -5 c-78 -5
-124 8 -143 42 -8 14 -14 99 -17 259 l-5 237 117 0 117 0 3 95 3 95 -117 0
-118 0 0 120 0 120 -125 0 -125 0 0 -120z"/>
<path fill="#023059" d="M3309 3329 c-210 -30 -349 -175 -381 -397 -33 -225 64 -428 245 -512
173 -81 449 -54 585 57 l23 18 -32 75 c-17 41 -33 77 -35 79 -2 2 -12 -3 -22
-12 -65 -59 -236 -93 -339 -68 -93 23 -162 94 -183 186 l-8 35 324 0 324 0 0
78 c0 133 -41 257 -110 336 -86 97 -241 147 -391 125z m185 -209 c38 -26 86
-107 86 -147 l0 -23 -205 0 c-231 0 -222 -3 -186 75 20 43 59 83 106 109 46
25 152 18 199 -14z"/>
<path fill="#023059" d="M7314 3326 c-183 -35 -324 -165 -363 -337 -16 -66 -13 -217 5 -284
38 -146 140 -253 294 -306 93 -32 257 -32 350 0 207 71 310 222 310 451 0 150
-42 263 -130 350 -108 109 -294 159 -466 126z m190 -197 c57 -16 118 -82 140
-152 29 -91 20 -216 -21 -288 -96 -170 -345 -155 -412 27 -27 70 -28 199 -4
269 19 58 83 126 133 142 46 14 116 15 164 2z"/>
<path fill="#023059" d="M3845 3293 c4 -10 81 -215 173 -455 l166 -438 137 0 137 0 25 64 c43
107 317 834 317 840 0 4 -57 5 -126 4 l-127 -3 -111 -327 c-61 -180 -113 -324
-117 -320 -3 4 -52 144 -109 312 -56 168 -107 313 -112 323 -8 15 -25 17 -134
17 -116 0 -126 -1 -119 -17z"/>
<path fill="#023059" d="M6070 2855 l0 -455 123 0 122 0 0 455 0 455 -122 0 -123 0 0 -455z"/>
</svg>
